<svg width="57" height="57" viewBox="0 0 57 57" fill="none" xmlns="http://www.w3.org/2000/svg">
<rect x="1" y="1" width="55" height="55" rx="8" fill="#DFDDD7" stroke="#49443A" stroke-width="0.5"/>
<path fill-rule="evenodd" clip-rule="evenodd" d="M14.75 28.5C14.75 23.0074 14.75 20.2611 16.0588 18.2831C16.6433 17.3998 17.3998 16.6433 18.2831 16.0588C20.2611 14.75 23.0074 14.75 28.5 14.75C33.9926 14.75 36.7389 14.75 38.7169 16.0588C39.6002 16.6433 40.3567 17.3998 40.9412 18.2831C42.25 20.2611 42.25 23.0074 42.25 28.5C42.25 33.9926 42.25 36.7389 40.9412 38.7169C40.3567 39.6002 39.6002 40.3567 38.7169 40.9412C36.7389 42.25 33.9926 42.25 28.5 42.25C23.0074 42.25 20.2611 42.25 18.2831 40.9412C17.3998 40.3567 16.6433 39.6002 16.0588 38.7169C14.75 36.7389 14.75 33.9926 14.75 28.5ZM35.6234 28.4989C35.6234 32.4303 32.4363 35.6174 28.5048 35.6174C24.5734 35.6174 21.3863 32.4303 21.3863 28.4989C21.3863 24.5674 24.5734 21.3803 28.5048 21.3803C32.4363 21.3803 35.6234 24.5674 35.6234 28.4989ZM28.5048 33.209C31.1062 33.209 33.215 31.1002 33.215 28.4989C33.215 25.8975 31.1062 23.7887 28.5048 23.7887C25.9035 23.7887 23.7947 25.8975 23.7947 28.4989C23.7947 31.1002 25.9035 33.209 28.5048 33.209ZM35.9018 22.6965C36.8256 22.6965 37.5745 21.9477 37.5745 21.0239C37.5745 20.1001 36.8256 19.3512 35.9018 19.3512C34.978 19.3512 34.2292 20.1001 34.2292 21.0239C34.2292 21.9477 34.978 22.6965 35.9018 22.6965Z" fill="#49443A"/>
</svg>
