<svg width="36" height="37" viewBox="0 0 36 37" fill="none" xmlns="http://www.w3.org/2000/svg">
<rect y="0.5" width="36" height="36" rx="8" fill="#DFDDD7"/>
<path d="M9 11.9191C9 11.3419 9.20271 10.8657 9.60811 10.4905C10.0135 10.1153 10.5405 9.92773 11.1892 9.92773C11.8263 9.92773 12.3417 10.1124 12.7355 10.4818C13.1409 10.8628 13.3436 11.3592 13.3436 11.971C13.3436 12.5251 13.1467 12.9869 12.7529 13.3563C12.3475 13.7373 11.8147 13.9277 11.1544 13.9277H11.1371C10.5 13.9277 9.98456 13.7373 9.59073 13.3563C9.19691 12.9754 9 12.4963 9 11.9191ZM9.22587 27.0706V15.5035H13.083V27.0706H9.22587ZM15.2201 27.0706H19.0772V20.6117C19.0772 20.2077 19.1236 19.896 19.2162 19.6766C19.3784 19.2841 19.6245 18.9523 19.9546 18.681C20.2847 18.4097 20.6988 18.2741 21.1969 18.2741C22.4942 18.2741 23.1429 19.1456 23.1429 20.8888V27.0706H27V20.4386C27 18.73 26.5946 17.4342 25.7838 16.5511C24.973 15.668 23.9015 15.2264 22.5695 15.2264C21.0753 15.2264 19.9112 15.8671 19.0772 17.1485V17.1831H19.0598L19.0772 17.1485V15.5035H15.2201C15.2432 15.8729 15.2548 17.0215 15.2548 18.9494C15.2548 20.8772 15.2432 23.5843 15.2201 27.0706Z" fill="#86847E"/>
</svg>
