<svg width="57" height="57" viewBox="0 0 57 57" fill="none" xmlns="http://www.w3.org/2000/svg">
<rect x="1" y="1" width="55" height="55" rx="8" fill="#DFDDD7" stroke="#49443A" stroke-width="0.5"/>
<path d="M14.75 18.4458C14.75 17.564 15.0597 16.8365 15.6791 16.2633C16.2984 15.6901 17.1036 15.4035 18.0946 15.4035C19.0679 15.4035 19.8554 15.6857 20.457 16.2501C21.0764 16.8321 21.3861 17.5904 21.3861 18.5252C21.3861 19.3718 21.0853 20.0772 20.4836 20.6416C19.8642 21.2236 19.0502 21.5146 18.0415 21.5146H18.015C17.0417 21.5146 16.2542 21.2236 15.6525 20.6416C15.0508 20.0596 14.75 19.3277 14.75 18.4458ZM15.0951 41.594V23.922H20.9879V41.594H15.0951ZM24.2529 41.594H30.1458V31.7262C30.1458 31.1089 30.2165 30.6328 30.3581 30.2977C30.6058 29.698 30.9819 29.191 31.4862 28.7765C31.9906 28.362 32.6232 28.1548 33.3842 28.1548C35.3662 28.1548 36.3571 29.4864 36.3571 32.1495V41.594H42.25V31.4617C42.25 28.8515 41.6306 26.8718 40.3919 25.5225C39.1531 24.1733 37.5163 23.4987 35.4812 23.4987C33.1984 23.4987 31.4199 24.4776 30.1458 26.4352V26.4882H30.1192L30.1458 26.4352V23.922H24.2529C24.2883 24.4864 24.306 26.2412 24.306 29.1866C24.306 32.1319 24.2883 36.2677 24.2529 41.594Z" fill="#49443A"/>
</svg>
