<svg width="209" height="82" viewBox="0 0 209 82" fill="none" xmlns="http://www.w3.org/2000/svg">
<g clip-path="url(#clip0_151_426)">
<path d="M209 0H0V82H209V0Z" fill="#DFDDD7"/>
<path d="M29.0541 42.8762L30.5187 43.6468C30.0388 44.591 29.4844 45.3532 28.8556 45.9331C28.2267 46.5129 27.5192 46.9562 26.7332 47.2627C25.9471 47.5608 25.0576 47.71 24.0647 47.71C21.8637 47.71 20.1427 46.9893 18.9015 45.5479C17.6604 44.0982 17.0397 42.4621 17.0397 40.6396C17.0397 38.9248 17.5652 37.3965 18.616 36.0546C19.9482 34.348 21.7314 33.4947 23.9654 33.4947C26.2657 33.4947 28.1026 34.3687 29.4761 36.1166C30.4526 37.3509 30.949 38.8918 30.9655 40.739H18.827C18.8602 42.313 19.3608 43.6053 20.3288 44.6159C21.297 45.6183 22.4925 46.1195 23.9157 46.1195C24.6026 46.1195 25.2687 45.9993 25.914 45.7591C26.5677 45.5189 27.1221 45.2 27.5771 44.8024C28.0323 44.4047 28.5246 43.7627 29.0541 42.8762ZM29.0541 39.2356C28.8225 38.3077 28.4832 37.5663 28.0364 37.0113C27.5979 36.4562 27.0145 36.0089 26.2864 35.6693C25.5582 35.3297 24.7928 35.1598 23.9903 35.1598C22.6664 35.1598 21.5286 35.5864 20.5771 36.4397C19.882 37.061 19.3565 37.9929 19.0008 39.2356H29.0541ZM33.9567 28.6238H35.6944V47.3621H33.9567V28.6238ZM50.6752 42.8762L52.1397 43.6468C51.6597 44.591 51.1055 45.3532 50.4765 45.9331C49.8477 46.5129 49.1403 46.9562 48.3541 47.2627C47.5681 47.5608 46.6786 47.71 45.6857 47.71C43.4847 47.71 41.7636 46.9893 40.5224 45.5479C39.2813 44.0982 38.6608 42.4621 38.6608 40.6396C38.6608 38.9248 39.1861 37.3965 40.237 36.0546C41.5691 34.348 43.3523 33.4947 45.5863 33.4947C47.8867 33.4947 49.7235 34.3687 51.0971 36.1166C52.0735 37.3509 52.57 38.8918 52.5865 40.739H40.448C40.4811 42.313 40.9817 43.6053 41.9499 44.6159C42.9179 45.6183 44.1136 46.1195 45.5367 46.1195C46.2235 46.1195 46.8896 45.9993 47.535 45.7591C48.1886 45.5189 48.7431 45.2 49.1982 44.8024C49.6532 44.4047 50.1456 43.7627 50.6752 42.8762ZM50.6752 39.2356C50.4434 38.3077 50.1042 37.5663 49.6574 37.0113C49.2188 36.4562 48.6355 36.0089 47.9073 35.6693C47.1792 35.3297 46.4138 35.1598 45.6112 35.1598C44.2873 35.1598 43.1496 35.5864 42.198 36.4397C41.5029 37.061 40.9776 37.9929 40.6217 39.2356H50.6752ZM54.5599 33.8427H56.4093L60.9271 43.6839L65.4077 33.8427H67.2694L61.0885 47.3621H60.7782L54.5599 33.8427ZM81.307 42.8762L82.7715 43.6468C82.2915 44.591 81.7372 45.3532 81.1083 45.9331C80.4794 46.5129 79.7721 46.9562 78.9859 47.2627C78.1999 47.5608 77.3104 47.71 76.3175 47.71C74.1165 47.71 72.3954 46.9893 71.1542 45.5479C69.9131 44.0982 69.2926 42.4621 69.2926 40.6396C69.2926 38.9248 69.8179 37.3965 70.8688 36.0546C72.2009 34.348 73.984 33.4947 76.2182 33.4947C78.5185 33.4947 80.3553 34.3687 81.7289 36.1166C82.7053 37.3509 83.2018 38.8918 83.2183 40.739H71.0798C71.1128 42.313 71.6134 43.6053 72.5816 44.6159C73.5497 45.6183 74.7453 46.1195 76.1685 46.1195C76.8553 46.1195 77.5214 45.9993 78.1667 45.7591C78.8204 45.5189 79.3748 45.2 79.83 44.8024C80.285 44.4047 80.7774 43.7627 81.307 42.8762ZM81.307 39.2356C81.0752 38.3077 80.736 37.5663 80.2892 37.0113C79.8506 36.4562 79.2672 36.0089 78.5391 35.6693C77.811 35.3297 77.0456 35.1598 76.2429 35.1598C74.919 35.1598 73.7814 35.5864 72.8297 36.4397C72.1348 37.061 71.6094 37.9929 71.2535 39.2356H81.307ZM86.4701 33.8427H88.2078V36.2658C88.9028 35.3379 89.6723 34.6463 90.5164 34.1906C91.3603 33.7267 92.2787 33.4947 93.2716 33.4947C94.2812 33.4947 95.1748 33.7515 95.9526 34.2651C96.7386 34.7787 97.3179 35.4705 97.6901 36.3403C98.0625 37.21 98.2487 38.5645 98.2487 40.4035V47.3621H96.5236V40.9131C96.5236 39.3556 96.4573 38.3161 96.3249 37.7941C96.1181 36.8994 95.7292 36.2284 95.1583 35.7811C94.5874 35.3255 93.8426 35.0977 92.9241 35.0977C91.8733 35.0977 90.93 35.4456 90.0943 36.1415C89.2669 36.8374 88.7208 37.6988 88.456 38.7261C88.2905 39.397 88.2078 40.6231 88.2078 42.4042V47.3621H86.4701V33.8427Z" fill="#274E5F"/>
<path d="M111.021 47.6335C108.731 47.6335 106.562 47.2716 104.514 46.5477C102.495 45.7938 100.868 44.7984 99.6331 43.5618L101.215 40.983C102.239 42.0387 103.61 42.9133 105.327 43.607C107.074 44.3008 108.972 44.6476 111.021 44.6476C113.642 44.6476 115.645 44.0746 117.031 42.9284C118.447 41.7823 119.155 40.2441 119.155 38.3138C119.155 36.3836 118.462 34.8453 117.076 33.6992C115.72 32.553 113.566 31.98 110.614 31.98H108.355V29.5822L118.116 17.3218L118.567 18.5886H100.944V15.6931H121.279V18.0004L111.518 30.2608L109.936 29.2203H111.156C114.952 29.2203 117.784 30.0647 119.652 31.7538C121.55 33.4429 122.499 35.6144 122.499 38.2686C122.499 40.0481 122.077 41.6465 121.234 43.0641C120.39 44.4818 119.11 45.5977 117.392 46.412C115.706 47.2264 113.582 47.6335 111.021 47.6335ZM139.104 47.6335C136.573 47.6335 134.389 47.2716 132.551 46.5477C130.744 45.8239 129.343 44.7833 128.349 43.4261C127.385 42.0387 126.903 40.41 126.903 38.54C126.903 36.7304 127.37 35.1921 128.304 33.9254C129.268 32.6285 130.653 31.6332 132.461 30.9395C134.299 30.2457 136.513 29.8989 139.104 29.8989C141.664 29.8989 143.864 30.2457 145.701 30.9395C147.538 31.6332 148.939 32.6285 149.904 33.9254C150.898 35.1921 151.395 36.7304 151.395 38.54C151.395 40.41 150.898 42.0387 149.904 43.4261C148.91 44.7833 147.493 45.8239 145.656 46.5477C143.819 47.2716 141.634 47.6335 139.104 47.6335ZM139.104 44.8738C141.905 44.8738 144.09 44.3008 145.656 43.1546C147.253 42.0085 148.051 40.4553 148.051 38.4948C148.051 36.5343 147.253 34.9961 145.656 33.8801C144.09 32.734 141.905 32.161 139.104 32.161C136.302 32.161 134.118 32.734 132.551 33.8801C130.985 34.9961 130.201 36.5343 130.201 38.4948C130.201 40.4553 130.985 42.0085 132.551 43.1546C134.118 44.3008 136.302 44.8738 139.104 44.8738ZM139.104 31.7538C136.754 31.7538 134.751 31.4371 133.094 30.8037C131.467 30.1704 130.217 29.2655 129.343 28.0892C128.469 26.8829 128.032 25.4501 128.032 23.7913C128.032 22.042 128.484 20.5491 129.388 19.3124C130.322 18.0457 131.617 17.0805 133.274 16.417C134.931 15.7535 136.875 15.4217 139.104 15.4217C141.333 15.4217 143.277 15.7535 144.933 16.417C146.621 17.0805 147.931 18.0457 148.864 19.3124C149.798 20.5491 150.265 22.042 150.265 23.7913C150.265 25.4501 149.829 26.8829 148.955 28.0892C148.081 29.2655 146.801 30.1704 145.114 30.8037C143.457 31.4371 141.453 31.7538 139.104 31.7538ZM139.104 29.5822C141.573 29.5822 143.503 29.0694 144.888 28.044C146.273 27.0186 146.967 25.6462 146.967 23.927C146.967 22.1174 146.244 20.7149 144.797 19.7196C143.381 18.6942 141.483 18.1814 139.104 18.1814C136.724 18.1814 134.826 18.6942 133.41 19.7196C131.994 20.7149 131.286 22.1023 131.286 23.8818C131.286 25.6311 131.964 27.0186 133.32 28.044C134.705 29.0694 136.633 29.5822 139.104 29.5822Z" fill="#185136"/>
<path d="M124.335 47.71V66.4483H122.622V64.1246C121.894 65.011 121.075 65.6779 120.165 66.1252C119.263 66.5725 118.274 66.7962 117.198 66.7962C115.287 66.7962 113.653 66.1044 112.296 64.721C110.947 63.3293 110.273 61.6394 110.273 59.6513C110.273 57.7045 110.955 56.0395 112.321 54.6561C113.686 53.2727 115.328 52.5809 117.248 52.5809C118.357 52.5809 119.358 52.817 120.252 53.2892C121.154 53.7615 121.944 54.4696 122.622 55.414V47.71H124.335ZM117.385 54.2584C116.417 54.2584 115.523 54.4987 114.704 54.9792C113.885 55.4514 113.231 56.1182 112.743 56.9797C112.263 57.8412 112.023 58.7524 112.023 59.7134C112.023 60.6661 112.267 61.5773 112.755 62.4471C113.243 63.317 113.897 63.9962 114.716 64.4849C115.544 64.9655 116.429 65.2057 117.372 65.2057C118.324 65.2057 119.226 64.9655 120.078 64.4849C120.93 64.0045 121.584 63.3542 122.039 62.534C122.502 61.714 122.734 60.7903 122.734 59.7631C122.734 58.1975 122.217 56.8886 121.183 55.8365C120.156 54.7845 118.89 54.2584 117.385 54.2584ZM139.651 61.9624L141.116 62.733C140.636 63.6772 140.081 64.4394 139.452 65.0193C138.824 65.5991 138.116 66.0424 137.33 66.3489C136.544 66.647 135.654 66.7962 134.662 66.7962C132.461 66.7962 130.74 66.0754 129.498 64.6341C128.257 63.1844 127.637 61.5483 127.637 59.7258C127.637 58.011 128.162 56.4827 129.213 55.1407C130.545 53.4342 132.328 52.5809 134.562 52.5809C136.863 52.5809 138.699 53.4549 140.073 55.2028C141.049 56.4371 141.545 57.9779 141.562 59.8252H129.424C129.457 61.3992 129.957 62.6915 130.926 63.7021C131.894 64.7045 133.089 65.2057 134.513 65.2057C135.199 65.2057 135.865 65.0855 136.511 64.8453C137.165 64.6051 137.719 64.2862 138.174 63.8886C138.629 63.4909 139.121 62.8489 139.651 61.9624ZM139.651 58.3218C139.419 57.3939 139.08 56.6525 138.633 56.0975C138.195 55.5424 137.611 55.0951 136.883 54.7555C136.155 54.4159 135.39 54.246 134.587 54.246C133.263 54.246 132.125 54.6726 131.174 55.5259C130.479 56.1472 129.953 57.0791 129.598 58.3218H139.651ZM151.603 54.4076L150.486 55.5632C149.559 54.6602 148.654 54.2088 147.769 54.2088C147.205 54.2088 146.721 54.3951 146.316 54.7679C145.919 55.1407 145.72 55.5756 145.72 56.0726C145.72 56.5117 145.886 56.93 146.217 57.3276C146.547 57.7335 147.243 58.21 148.302 58.7567C149.593 59.4277 150.47 60.0738 150.933 60.6951C151.388 61.3247 151.615 62.033 151.615 62.8199C151.615 63.93 151.227 64.8702 150.449 65.6406C149.671 66.4109 148.699 66.7962 147.533 66.7962C146.755 66.7962 146.01 66.6264 145.299 66.2867C144.596 65.9471 144.011 65.4791 143.548 64.8826L144.641 63.64C145.526 64.6424 146.465 65.1435 147.458 65.1435C148.153 65.1435 148.744 64.9198 149.233 64.4725C149.72 64.0252 149.965 63.4992 149.965 62.8944C149.965 62.3975 149.804 61.9542 149.482 61.5649C149.158 61.1839 148.43 60.7033 147.297 60.1235C146.08 59.494 145.252 58.8726 144.814 58.2596C144.375 57.6466 144.156 56.9466 144.156 56.1597C144.156 55.1324 144.504 54.2792 145.199 53.5999C145.902 52.9205 146.787 52.5809 147.855 52.5809C149.096 52.5809 150.346 53.1899 151.603 54.4076ZM155.303 47.3621C155.699 47.3621 156.038 47.5029 156.319 47.7845C156.602 48.0661 156.742 48.4059 156.742 48.8034C156.742 49.1928 156.602 49.5283 156.319 49.8099C156.038 50.0917 155.699 50.2325 155.303 50.2325C154.913 50.2325 154.578 50.0917 154.297 49.8099C154.015 49.5283 153.875 49.1928 153.875 48.8034C153.875 48.4059 154.015 48.0661 154.297 47.7845C154.578 47.5029 154.913 47.3621 155.303 47.3621ZM154.433 52.9289H156.184V66.4483H154.433V52.9289ZM171.412 52.9289H173.162V63.7021C173.162 65.5991 172.997 66.9868 172.666 67.8649C172.21 69.1075 171.421 70.0642 170.295 70.7352C169.17 71.4062 167.817 71.7416 166.237 71.7416C165.078 71.7416 164.035 71.5761 163.109 71.2447C162.191 70.9216 161.441 70.4825 160.862 69.9275C160.283 69.3808 159.749 68.5773 159.261 67.517H161.147C161.661 68.4116 162.322 69.0742 163.134 69.505C163.945 69.9358 164.95 70.1511 166.149 70.1511C167.333 70.1511 168.33 69.9275 169.14 69.4801C169.959 69.0412 170.544 68.4861 170.891 67.8151C171.239 67.1441 171.412 66.063 171.412 64.572V63.8761C170.759 64.7045 169.959 65.3424 169.017 65.7897C168.074 66.2287 167.073 66.4483 166.014 66.4483C164.772 66.4483 163.605 66.1418 162.513 65.5287C161.421 64.9075 160.577 64.0749 159.981 63.0311C159.385 61.9873 159.087 60.84 159.087 59.5891C159.087 58.3383 159.398 57.1743 160.018 56.0975C160.639 55.0122 161.495 54.1549 162.588 53.5254C163.688 52.8958 164.846 52.5809 166.063 52.5809C167.073 52.5809 168.012 52.7922 168.88 53.2146C169.757 53.6288 170.602 54.3164 171.412 55.2773V52.9289ZM166.286 54.2584C165.302 54.2584 164.387 54.4987 163.544 54.9792C162.699 55.4514 162.037 56.1099 161.557 56.9549C161.077 57.7916 160.838 58.6987 160.838 59.6762C160.838 61.159 161.334 62.385 162.327 63.3542C163.319 64.3235 164.606 64.808 166.187 64.808C167.783 64.808 169.067 64.3276 170.034 63.3666C171.011 62.4057 171.499 61.1424 171.499 59.5767C171.499 58.5577 171.275 57.6507 170.829 56.8554C170.382 56.0519 169.749 55.4181 168.93 54.9543C168.111 54.4904 167.23 54.2584 166.286 54.2584ZM176.886 52.9289H178.623V55.352C179.318 54.4241 180.087 53.7325 180.932 53.2768C181.776 52.8129 182.694 52.5809 183.687 52.5809C184.697 52.5809 185.591 52.8377 186.369 53.3513C187.154 53.8649 187.733 54.5567 188.106 55.4265C188.478 56.2962 188.665 57.6507 188.665 59.4897V66.4483H186.939V59.9992C186.939 58.4418 186.873 57.4023 186.74 56.8803C186.534 55.9856 186.144 55.3146 185.574 54.8673C185.003 54.4117 184.257 54.1839 183.34 54.1839C182.289 54.1839 181.346 54.5318 180.51 55.2277C179.682 55.9236 179.137 56.785 178.872 57.8123C178.706 58.4832 178.623 59.7093 178.623 61.4904V66.4483H176.886V52.9289ZM199.19 54.4076L198.073 55.5632C197.145 54.6602 196.24 54.2088 195.354 54.2088C194.791 54.2088 194.308 54.3951 193.903 54.7679C193.504 55.1407 193.307 55.5756 193.307 56.0726C193.307 56.5117 193.472 56.93 193.802 57.3276C194.134 57.7335 194.829 58.21 195.888 58.7567C197.179 59.4277 198.056 60.0738 198.519 60.6951C198.974 61.3247 199.202 62.033 199.202 62.8199C199.202 63.93 198.813 64.8702 198.035 65.6406C197.258 66.4109 196.285 66.7962 195.118 66.7962C194.34 66.7962 193.596 66.6264 192.884 66.2867C192.181 65.9471 191.598 65.4791 191.135 64.8826L192.226 63.64C193.112 64.6424 194.051 65.1435 195.044 65.1435C195.738 65.1435 196.33 64.9198 196.819 64.4725C197.307 64.0252 197.552 63.4992 197.552 62.8944C197.552 62.3975 197.389 61.9542 197.067 61.5649C196.744 61.1839 196.017 60.7033 194.883 60.1235C193.667 59.494 192.839 58.8726 192.4 58.2596C191.962 57.6466 191.742 56.9466 191.742 56.1597C191.742 55.1324 192.089 54.2792 192.786 53.5999C193.489 52.9205 194.374 52.5809 195.44 52.5809C196.682 52.5809 197.931 53.1899 199.19 54.4076Z" fill="#274E5F"/>
<path d="M155.338 11.3103L151.261 18.3793H159.415L155.338 11.3103ZM156.044 46.6552V17.6724H154.632V46.6552H156.044Z" fill="#49443A"/>
<path d="M7.06079 48.7759L14.1216 52.8572V44.6945L7.06079 48.7759ZM153.22 48.069H13.4155V49.4828H153.22V48.069Z" fill="#49443A"/>
</g>
<defs>
<clipPath id="clip0_151_426">
<rect width="209" height="82" rx="5" fill="white"/>
</clipPath>
</defs>
</svg>
