<svg width="211" height="84" viewBox="0 0 211 84" fill="none" xmlns="http://www.w3.org/2000/svg">
<g clip-path="url(#clip0_24_2406)">
<path d="M210 1H1V82.9054H210V1Z" fill="#DFDDD7"/>
<path d="M30.0541 43.8268L31.5187 44.5964C31.0388 45.5396 30.4844 46.3009 29.8556 46.8801C29.2267 47.4593 28.5192 47.902 27.7332 48.2081C26.9471 48.506 26.0575 48.6549 25.0647 48.6549C22.8637 48.6549 21.1427 47.935 19.9015 46.4953C18.6604 45.0473 18.0397 43.4131 18.0397 41.5927C18.0397 39.8799 18.5652 38.3534 19.616 37.0129C20.9482 35.3083 22.7313 34.4561 24.9654 34.4561C27.2656 34.4561 29.1026 35.3291 30.4761 37.0749C31.4526 38.3078 31.9489 39.8469 31.9655 41.692H19.8269C19.8601 43.2642 20.3607 44.555 21.3288 45.5644C22.297 46.5657 23.4925 47.0663 24.9157 47.0663C25.6025 47.0663 26.2687 46.9462 26.914 46.7063C27.5677 46.4664 28.1221 46.1478 28.5771 45.7507C29.0323 45.3535 29.5245 44.7122 30.0541 43.8268ZM30.0541 40.1903C29.8225 39.2635 29.4832 38.523 29.0364 37.9686C28.5979 37.4141 28.0145 36.9673 27.2864 36.6281C26.5582 36.2889 25.7928 36.1192 24.9902 36.1192C23.6663 36.1192 22.5286 36.5454 21.577 37.3976C20.882 38.0183 20.3565 38.949 20.0008 40.1903H30.0541ZM34.9567 29.5908H36.6944V48.3074H34.9567V29.5908ZM51.6752 43.8268L53.1397 44.5964C52.6597 45.5396 52.1054 46.3009 51.4765 46.8801C50.8476 47.4593 50.1403 47.902 49.3541 48.2081C48.5681 48.506 47.6786 48.6549 46.6857 48.6549C44.4847 48.6549 42.7636 47.935 41.5224 46.4953C40.2813 45.0473 39.6608 43.4131 39.6608 41.5927C39.6608 39.8799 40.1861 38.3534 41.237 37.0129C42.5691 35.3083 44.3522 34.4561 46.5863 34.4561C48.8867 34.4561 50.7235 35.3291 52.0971 37.0749C53.0735 38.3078 53.57 39.8469 53.5865 41.692H41.448C41.481 43.2642 41.9817 44.555 42.9498 45.5644C43.9179 46.5657 45.1135 47.0663 46.5367 47.0663C47.2235 47.0663 47.8896 46.9462 48.5349 46.7063C49.1886 46.4664 49.743 46.1478 50.1982 45.7507C50.6532 45.3535 51.1456 44.7122 51.6752 43.8268ZM51.6752 40.1903C51.4434 39.2635 51.1042 38.523 50.6574 37.9686C50.2188 37.4141 49.6354 36.9673 48.9073 36.6281C48.1792 36.2889 47.4138 36.1192 46.6111 36.1192C45.2872 36.1192 44.1496 36.5454 43.1979 37.3976C42.5029 38.0183 41.9776 38.949 41.6217 40.1903H51.6752ZM55.5599 34.8036H57.4092L61.927 44.6335L66.4077 34.8036H68.2693L62.0884 48.3074H61.7782L55.5599 34.8036ZM82.3069 43.8268L83.7715 44.5964C83.2915 45.5396 82.7372 46.3009 82.1082 46.8801C81.4794 47.4593 80.772 47.902 79.9859 48.2081C79.1999 48.506 78.3104 48.6549 77.3175 48.6549C75.1165 48.6549 73.3953 47.935 72.1542 46.4953C70.913 45.0473 70.2925 43.4131 70.2925 41.5927C70.2925 39.8799 70.8179 38.3534 71.8688 37.0129C73.2009 35.3083 74.984 34.4561 77.2182 34.4561C79.5185 34.4561 81.3553 35.3291 82.7289 37.0749C83.7053 38.3078 84.2018 39.8469 84.2183 41.692H72.0798C72.1128 43.2642 72.6134 44.555 73.5816 45.5644C74.5496 46.5657 75.7453 47.0663 77.1685 47.0663C77.8552 47.0663 78.5213 46.9462 79.1667 46.7063C79.8204 46.4664 80.3748 46.1478 80.83 45.7507C81.2849 45.3535 81.7774 44.7122 82.3069 43.8268ZM82.3069 40.1903C82.0752 39.2635 81.736 38.523 81.2892 37.9686C80.8506 37.4141 80.2672 36.9673 79.5391 36.6281C78.811 36.2889 78.0456 36.1192 77.2429 36.1192C75.919 36.1192 74.7814 36.5454 73.8297 37.3976C73.1348 38.0183 72.6093 38.949 72.2535 40.1903H82.3069ZM87.4701 34.8036H89.2077V37.2239C89.9028 36.2971 90.6723 35.6063 91.5164 35.1511C92.3603 34.6878 93.2787 34.4561 94.2716 34.4561C95.2812 34.4561 96.1748 34.7125 96.9526 35.2256C97.7386 35.7386 98.3179 36.4296 98.6901 37.2983C99.0625 38.1671 99.2486 39.52 99.2486 41.3569V48.3074H97.5235V41.8658C97.5235 40.3102 97.4573 39.2718 97.3249 38.7505C97.1181 37.8569 96.7292 37.1866 96.1583 36.7398C95.5873 36.2847 94.8425 36.0572 93.9241 36.0572C92.8733 36.0572 91.93 36.4047 91.0943 37.0998C90.2669 37.7949 89.7208 38.6553 89.456 39.6814C89.2905 40.3516 89.2077 41.5762 89.2077 43.3552V48.3074H87.4701V34.8036Z" fill="#274E5F"/>
<path d="M112.021 48.5786C109.731 48.5786 107.562 48.2171 105.514 47.494C103.495 46.7409 101.868 45.7468 100.633 44.5115L102.215 41.9358C103.239 42.9902 104.61 43.8638 106.327 44.5567C108.074 45.2497 109.972 45.5961 112.021 45.5961C114.642 45.5961 116.645 45.0237 118.031 43.8789C119.447 42.7341 120.155 41.1976 120.155 39.2696C120.155 37.3416 119.462 35.8051 118.076 34.6603C116.72 33.5155 114.566 32.9431 111.614 32.9431H109.355V30.5481L119.116 18.3018L119.567 19.5671H101.944V16.675H122.279V18.9797L112.518 31.2259L110.936 30.1866H112.156C115.952 30.1866 118.784 31.0301 120.652 32.7172C122.55 34.4043 123.499 36.5734 123.499 39.2244C123.499 41.0019 123.077 42.5985 122.234 44.0145C121.39 45.4304 120.11 46.5451 118.392 47.3585C116.706 48.1719 114.582 48.5786 112.021 48.5786ZM140.104 48.5786C137.573 48.5786 135.389 48.2171 133.551 47.494C131.744 46.771 130.343 45.7316 129.349 44.376C128.385 42.9902 127.903 41.3634 127.903 39.4955C127.903 37.688 128.37 36.1515 129.304 34.8862C130.268 33.5909 131.653 32.5967 133.461 31.9038C135.299 31.2108 137.513 30.8644 140.104 30.8644C142.664 30.8644 144.864 31.2108 146.701 31.9038C148.538 32.5967 149.939 33.5909 150.904 34.8862C151.898 36.1515 152.395 37.688 152.395 39.4955C152.395 41.3634 151.898 42.9902 150.904 44.376C149.91 45.7316 148.493 46.771 146.656 47.494C144.819 48.2171 142.634 48.5786 140.104 48.5786ZM140.104 45.822C142.905 45.822 145.09 45.2497 146.656 44.1048C148.253 42.96 149.051 41.4086 149.051 39.4504C149.051 37.4921 148.253 35.9557 146.656 34.8411C145.09 33.6962 142.905 33.1239 140.104 33.1239C137.302 33.1239 135.118 33.6962 133.551 34.8411C131.985 35.9557 131.201 37.4921 131.201 39.4504C131.201 41.4086 131.985 42.96 133.551 44.1048C135.118 45.2497 137.302 45.822 140.104 45.822ZM140.104 32.7172C137.754 32.7172 135.751 32.4008 134.094 31.7682C132.467 31.1355 131.217 30.2318 130.343 29.0568C129.469 27.8518 129.032 26.4208 129.032 24.7639C129.032 23.0166 129.484 21.5254 130.388 20.2901C131.322 19.0248 132.617 18.0608 134.274 17.398C135.931 16.7353 137.875 16.4039 140.104 16.4039C142.333 16.4039 144.277 16.7353 145.933 17.398C147.621 18.0608 148.931 19.0248 149.864 20.2901C150.798 21.5254 151.265 23.0166 151.265 24.7639C151.265 26.4208 150.829 27.8518 149.955 29.0568C149.081 30.2318 147.801 31.1355 146.114 31.7682C144.457 32.4008 142.453 32.7172 140.104 32.7172ZM140.104 30.5481C142.573 30.5481 144.503 30.0359 145.888 29.0117C147.273 27.9874 147.967 26.6166 147.967 24.8994C147.967 23.0919 147.244 21.691 145.797 20.6968C144.381 19.6726 142.483 19.1604 140.104 19.1604C137.724 19.1604 135.826 19.6726 134.41 20.6968C132.994 21.691 132.286 23.0768 132.286 24.8542C132.286 26.6015 132.964 27.9874 134.32 29.0117C135.705 30.0359 137.633 30.5481 140.104 30.5481Z" fill="#2C5839"/>
<path d="M125.335 48.655V67.3716H123.622V65.0506C122.894 65.936 122.075 66.6021 121.165 67.0489C120.263 67.4958 119.274 67.7192 118.198 67.7192C116.287 67.7192 114.653 67.0282 113.296 65.6464C111.947 64.2563 111.273 62.5683 111.273 60.5825C111.273 58.638 111.955 56.9749 113.321 55.5931C114.686 54.2113 116.328 53.5203 118.248 53.5203C119.357 53.5203 120.358 53.7561 121.252 54.2278C122.154 54.6994 122.944 55.4068 123.622 56.3501V48.655H125.335ZM118.385 55.1958C117.417 55.1958 116.523 55.4359 115.704 55.9157C114.885 56.3874 114.231 57.0535 113.743 57.914C113.263 58.7745 113.023 59.6847 113.023 60.6445C113.023 61.5962 113.267 62.5063 113.755 63.3751C114.243 64.244 114.897 64.9224 115.716 65.4106C116.544 65.8906 117.429 66.1305 118.372 66.1305C119.324 66.1305 120.226 65.8906 121.078 65.4106C121.93 64.9307 122.584 64.2811 123.039 63.4619C123.502 62.6429 123.734 61.7202 123.734 60.6942C123.734 59.1304 123.217 57.823 122.183 56.7721C121.156 55.7213 119.89 55.1958 118.385 55.1958ZM140.651 62.891L142.116 63.6606C141.636 64.6038 141.081 65.3651 140.452 65.9444C139.824 66.5235 139.116 66.9662 138.33 67.2724C137.544 67.5702 136.654 67.7192 135.662 67.7192C133.461 67.7192 131.74 66.9992 130.498 65.5595C129.257 64.1115 128.637 62.4774 128.637 60.6569C128.637 58.9441 129.162 57.4176 130.213 56.0772C131.545 54.3725 133.328 53.5203 135.562 53.5203C137.863 53.5203 139.699 54.3933 141.073 56.1391C142.049 57.372 142.545 58.9111 142.562 60.7562H130.424C130.457 62.3284 130.957 63.6192 131.926 64.6286C132.894 65.6299 134.089 66.1305 135.513 66.1305C136.199 66.1305 136.865 66.0104 137.511 65.7705C138.165 65.5306 138.719 65.212 139.174 64.8149C139.629 64.4177 140.121 63.7764 140.651 62.891ZM140.651 59.2545C140.419 58.3277 140.08 57.5872 139.633 57.0328C139.195 56.4783 138.611 56.0315 137.883 55.6923C137.155 55.3531 136.39 55.1834 135.587 55.1834C134.263 55.1834 133.125 55.6096 132.174 56.4618C131.479 57.0825 130.953 58.0132 130.598 59.2545H140.651ZM152.603 55.3448L151.486 56.4991C150.559 55.5972 149.654 55.1463 148.769 55.1463C148.205 55.1463 147.721 55.3324 147.316 55.7048C146.919 56.0772 146.72 56.5115 146.72 57.0079C146.72 57.4465 146.886 57.8644 147.217 58.2615C147.547 58.6669 148.243 59.1428 149.302 59.6889C150.593 60.3591 151.47 61.0045 151.933 61.6251C152.388 62.2539 152.615 62.9614 152.615 63.7475C152.615 64.8563 152.227 65.7954 151.449 66.5649C150.671 67.3343 149.699 67.7192 148.533 67.7192C147.755 67.7192 147.01 67.5496 146.299 67.2102C145.596 66.871 145.011 66.4036 144.548 65.8078L145.641 64.5666C146.526 65.5679 147.465 66.0683 148.458 66.0683C149.153 66.0683 149.744 65.8449 150.233 65.3981C150.72 64.9513 150.965 64.426 150.965 63.8219C150.965 63.3255 150.804 62.8828 150.482 62.4939C150.158 62.1133 149.43 61.6333 148.297 61.0542C147.08 60.4253 146.252 59.8047 145.814 59.1924C145.375 58.5801 145.156 57.8809 145.156 57.0949C145.156 56.0688 145.504 55.2166 146.199 54.538C146.902 53.8595 147.787 53.5203 148.855 53.5203C150.096 53.5203 151.346 54.1285 152.603 55.3448ZM156.303 48.3074C156.699 48.3074 157.038 48.4481 157.319 48.7294C157.602 49.0107 157.742 49.35 157.742 49.7471C157.742 50.136 157.602 50.4711 157.319 50.7525C157.038 51.0339 156.699 51.1745 156.303 51.1745C155.913 51.1745 155.578 51.0339 155.297 50.7525C155.015 50.4711 154.875 50.136 154.875 49.7471C154.875 49.35 155.015 49.0107 155.297 48.7294C155.578 48.4481 155.913 48.3074 156.303 48.3074ZM155.433 53.8678H157.184V67.3716H155.433V53.8678ZM172.412 53.8678H174.162V64.6286C174.162 66.5235 173.997 67.9095 173.666 68.7866C173.21 70.0278 172.421 70.9834 171.295 71.6536C170.17 72.3238 168.817 72.6589 167.237 72.6589C166.078 72.6589 165.035 72.4935 164.109 72.1625C163.191 71.8399 162.441 71.4012 161.862 70.8468C161.283 70.3007 160.749 69.4982 160.261 68.4391H162.147C162.661 69.3327 163.322 69.9946 164.134 70.4249C164.945 70.8552 165.95 71.0702 167.149 71.0702C168.333 71.0702 169.33 70.8468 170.14 70.4C170.959 69.9615 171.544 69.4071 171.891 68.7369C172.239 68.0667 172.412 66.9868 172.412 65.4975V64.8025C171.759 65.6299 170.959 66.267 170.017 66.7138C169.074 67.1523 168.073 67.3716 167.014 67.3716C165.772 67.3716 164.605 67.0655 163.513 66.4532C162.421 65.8327 161.577 65.001 160.981 63.9584C160.385 62.9158 160.087 61.7699 160.087 60.5204C160.087 59.271 160.398 58.1084 161.018 57.0328C161.639 55.9488 162.495 55.0925 163.588 54.4636C164.688 53.8348 165.846 53.5203 167.063 53.5203C168.073 53.5203 169.012 53.7313 169.88 54.1532C170.757 54.567 171.602 55.2537 172.412 56.2136V53.8678ZM167.286 55.1958C166.302 55.1958 165.387 55.4359 164.544 55.9157C163.699 56.3874 163.037 57.0452 162.557 57.8892C162.077 58.725 161.838 59.631 161.838 60.6074C161.838 62.0884 162.334 63.3131 163.327 64.2811C164.319 65.2493 165.606 65.7332 167.187 65.7332C168.783 65.7332 170.067 65.2534 171.034 64.2935C172.011 63.3337 172.499 62.0719 172.499 60.508C172.499 59.4902 172.275 58.5842 171.829 57.7898C171.382 56.9873 170.749 56.3542 169.93 55.8909C169.111 55.4276 168.23 55.1958 167.286 55.1958ZM177.886 53.8678H179.623V56.2881C180.318 55.3613 181.087 54.6705 181.932 54.2154C182.776 53.752 183.694 53.5203 184.687 53.5203C185.697 53.5203 186.591 53.7767 187.369 54.2898C188.154 54.8028 188.733 55.4938 189.106 56.3626C189.478 57.2313 189.665 58.5842 189.665 60.4211V67.3716H187.939V60.93C187.939 59.3744 187.873 58.336 187.74 57.8147C187.534 56.9211 187.144 56.2508 186.574 55.804C186.003 55.3489 185.257 55.1214 184.34 55.1214C183.289 55.1214 182.346 55.4689 181.51 56.164C180.682 56.8591 180.137 57.7195 179.872 58.7456C179.706 59.4158 179.623 60.6404 179.623 62.4195V67.3716H177.886V53.8678ZM200.19 55.3448L199.073 56.4991C198.145 55.5972 197.24 55.1463 196.354 55.1463C195.791 55.1463 195.308 55.3324 194.903 55.7048C194.504 56.0772 194.307 56.5115 194.307 57.0079C194.307 57.4465 194.472 57.8644 194.802 58.2615C195.134 58.6669 195.829 59.1428 196.888 59.6889C198.179 60.3591 199.056 61.0045 199.519 61.6251C199.974 62.2539 200.202 62.9614 200.202 63.7475C200.202 64.8563 199.813 65.7954 199.035 66.5649C198.258 67.3343 197.285 67.7192 196.118 67.7192C195.34 67.7192 194.596 67.5496 193.884 67.2102C193.181 66.871 192.598 66.4036 192.135 65.8078L193.226 64.5666C194.112 65.5679 195.051 66.0683 196.044 66.0683C196.738 66.0683 197.33 65.8449 197.819 65.3981C198.307 64.9513 198.552 64.426 198.552 63.8219C198.552 63.3255 198.389 62.8828 198.067 62.4939C197.744 62.1133 197.017 61.6333 195.883 61.0542C194.667 60.4253 193.839 59.8047 193.4 59.1924C192.962 58.5801 192.742 57.8809 192.742 57.0949C192.742 56.0688 193.089 55.2166 193.786 54.538C194.489 53.8595 195.374 53.5203 196.44 53.5203C197.682 53.5203 198.931 54.1285 200.19 55.3448Z" fill="#274E5F"/>
<path d="M156.338 12.2973L152.261 19.3581H160.415L156.338 12.2973ZM157.044 47.6014V18.652H155.632V47.6014H157.044Z" fill="#49443A"/>
<path d="M8.06081 49.7196L15.1216 53.7962V45.6429L8.06081 49.7196ZM154.22 49.0135H14.4155V50.4257H154.22V49.0135Z" fill="#49443A"/>
</g>
<rect x="1" y="1" width="209" height="81.9054" rx="5" stroke="#49443A" stroke-width="2"/>
<defs>
<clipPath id="clip0_24_2406">
<rect x="1" y="1" width="209" height="81.9054" rx="5" fill="white"/>
</clipPath>
</defs>
</svg>
